<svg
    width="20"
    height="19"
    viewBox="0 0 20 19"
    fill="none"
    xmlns="http://www.w3.org/2000/svg"
>
    <path
        d="M9.99996 15.1864V17.6952M9.99996 17.6952H7.49996M9.99996 17.6952H12.5M11.6666 5.98732C11.6666 5.06359 10.9204 4.31476 9.99996 4.31476C9.07949 4.31476 8.33329 5.06359 8.33329 5.98732C8.33329 6.91105 9.07949 7.65988 9.99996 7.65988C10.9204 7.65988 11.6666 6.91105 11.6666 5.98732ZM4.99996 15.1864H15C16.8409 15.1864 18.3333 13.6887 18.3333 11.8413V4.31476C18.3333 2.4673 16.8409 0.969635 15 0.969635H4.99996C3.15901 0.969635 1.66663 2.4673 1.66663 4.31476V11.8413C1.66663 13.6887 3.15901 15.1864 4.99996 15.1864ZM7.91663 11.8413H12.0833C12.7736 11.8413 13.3333 11.2797 13.3333 10.5869C13.3333 9.89406 12.7736 9.33244 12.0833 9.33244H7.91663C7.22627 9.33244 6.66663 9.89406 6.66663 10.5869C6.66663 11.2797 7.22627 11.8413 7.91663 11.8413Z"
        stroke="#28303F"
        stroke-width="1.5"
        stroke-linecap="round"
    />
</svg>