<svg width="25" height="25" viewBox="0 0 25 25" fill="none" xmlns="http://www.w3.org/2000/svg">
<path fill-rule="evenodd" clip-rule="evenodd" d="M11.3532 2.06422C10.0232 2.06422 8.94495 3.14243 8.94495 4.47248V4.58716H16.055V4.47248C16.055 3.14243 14.9768 2.06422 13.6468 2.06422H11.3532ZM18.1193 4.58716V4.47248C18.1193 2.0024 16.1169 0 13.6468 0H11.3532C8.88313 0 6.88073 2.0024 6.88073 4.47248V4.58716H5.61927C2.51583 4.58716 0 7.10299 0 10.2064V19.3807C0 22.4842 2.51583 25 5.61927 25H19.3807C22.4842 25 25 22.4842 25 19.3807V10.2064C25 7.10299 22.4842 4.58716 19.3807 4.58716H18.1193ZM5.61927 6.65138C3.83847 6.65138 2.36349 7.96074 2.10454 9.66924C2.14337 9.69193 2.18473 9.71571 2.22862 9.74048C2.64793 9.97714 3.29891 10.3048 4.19081 10.6421C4.92212 10.9187 5.81697 11.2025 6.88073 11.448V10.9825C6.88073 10.4125 7.34283 9.95038 7.91284 9.95038C8.48286 9.95038 8.94495 10.4125 8.94495 10.9825V11.8338C10.015 11.9898 11.2082 12.0992 12.5277 12.1347C13.8265 12.1695 15.0011 12.108 16.055 11.9832V10.9825C16.055 10.4125 16.5171 9.95038 17.0872 9.95038C17.6572 9.95038 18.1193 10.4125 18.1193 10.9825V11.6331C19.1752 11.3965 20.0622 11.103 20.786 10.8091C21.6677 10.451 22.311 10.0906 22.7251 9.82743C22.7895 9.78651 22.8483 9.74793 22.9017 9.71208C22.6611 7.98267 21.1764 6.65138 19.3807 6.65138H5.61927ZM22.9358 12.0866C22.5462 12.2912 22.0889 12.5079 21.5627 12.7216C20.6303 13.1003 19.4847 13.4683 18.1193 13.7434V14.4229C18.1193 14.9929 17.6572 15.455 17.0872 15.455C16.5171 15.455 16.055 14.9929 16.055 14.4229V14.0606C14.968 14.1782 13.7744 14.2331 12.4723 14.1981C11.1907 14.1637 10.0157 14.0634 8.94495 13.9183V14.4229C8.94495 14.9929 8.48286 15.455 7.91284 15.455C7.34283 15.455 6.88073 14.9929 6.88073 14.4229V13.562C5.52287 13.2745 4.38511 12.9226 3.46053 12.5728C2.9228 12.3694 2.45784 12.1671 2.06422 11.9789V19.3807C2.06422 21.3441 3.65587 22.9358 5.61927 22.9358H19.3807C21.3441 22.9358 22.9358 21.3441 22.9358 19.3807V12.0866Z" fill="url(#paint0_linear_158_3507)"/>
<defs>
<linearGradient id="paint0_linear_158_3507" x1="12.5" y1="0" x2="12.5" y2="25" gradientUnits="userSpaceOnUse">
<stop stop-color="#FF5722"/>
<stop offset="1" stop-color="white" stop-opacity="0"/>
</linearGradient>
</defs>
</svg>
