<svg
    width="18"
    height="19"
    viewBox="0 0 18 19"
    fill="none"
    xmlns="http://www.w3.org/2000/svg"
>
    <path
        d="M16.5 7.65988V5.56918C16.5 3.72172 15.0076 2.22406 13.1667 2.22406H4.83333C2.99238 2.22406 1.5 3.72172 1.5 5.56918V14.3501C1.5 16.1976 2.99238 17.6952 4.83333 17.6952H6.5M5.66667 0.969635V3.47848M12.3333 6.8236H5.66667M10.6667 10.1687H5.66667M7.33333 13.5138H5.66667M12.3333 0.969635V3.47848M9 17.6952L11.5506 16.9655C11.6874 16.9264 11.8119 16.8529 11.9125 16.752L16.0915 12.5582C16.6362 12.0116 16.6362 11.1253 16.0915 10.5787C15.5468 10.0321 14.6636 10.0321 14.1189 10.5787L9.9399 14.7725C9.83936 14.8734 9.76613 14.9984 9.72714 15.1356L9 17.6952Z"
        stroke="#28303F"
        stroke-width="1.5"
        stroke-linecap="round"
    />
</svg>