<svg width="28" height="25" viewBox="0 0 28 25" fill="none" xmlns="http://www.w3.org/2000/svg">
<path fill-rule="evenodd" clip-rule="evenodd" d="M0 12.5C0 5.60021 5.68912 0 12.7156 0H15.2844C15.6567 0 16.0256 0.0157605 16.3902 0.0466827C17.0263 0.100613 17.4973 0.649582 17.4423 1.27284C17.3872 1.89609 16.827 2.35762 16.1909 2.30369C15.8924 2.27838 15.5901 2.26544 15.2844 2.26544H12.7156C6.97365 2.26544 2.31193 6.84384 2.31193 12.5V18.8152C2.31193 20.9836 4.09842 22.7346 6.29358 22.7346H15.2844C21.0263 22.7346 25.6881 18.1562 25.6881 12.5C25.6881 12.199 25.6749 11.9014 25.6491 11.6075C25.5945 10.9842 26.0658 10.4355 26.7019 10.382C27.338 10.3284 27.8979 10.7903 27.9526 11.4136C27.984 11.7719 28 12.1342 28 12.5C28 19.3998 22.3109 25 15.2844 25H6.29358C2.81389 25 0 22.2272 0 18.8152V12.5ZM22.9908 2.26544C21.505 2.26544 20.2936 3.45097 20.2936 4.92181C20.2936 6.39266 21.505 7.57819 22.9908 7.57819C24.4766 7.57819 25.6881 6.39266 25.6881 4.92181C25.6881 3.45097 24.4766 2.26544 22.9908 2.26544ZM17.9817 4.92181C17.9817 2.20734 20.2205 0 22.9908 0C25.7612 0 28 2.20734 28 4.92181C28 7.63629 25.7612 9.84363 22.9908 9.84363C20.2205 9.84363 17.9817 7.63629 17.9817 4.92181ZM7.70642 9.97394C7.70642 9.34835 8.22396 8.84122 8.86238 8.84122H14C14.6384 8.84122 15.156 9.34835 15.156 9.97394C15.156 10.5995 14.6384 11.1067 14 11.1067H8.86238C8.22396 11.1067 7.70642 10.5995 7.70642 9.97394ZM7.70642 15.0261C7.70642 14.4005 8.22396 13.8933 8.86238 13.8933H19.1376C19.776 13.8933 20.2936 14.4005 20.2936 15.0261C20.2936 15.6516 19.776 16.1588 19.1376 16.1588H8.86238C8.22396 16.1588 7.70642 15.6516 7.70642 15.0261Z" fill="url(#paint0_linear_65_5143)"/>
<defs>
<linearGradient id="paint0_linear_65_5143" x1="14" y1="2.3365e-07" x2="7" y2="27.5" gradientUnits="userSpaceOnUse">
<stop stop-color="#FF5722"/>
<stop offset="1" stop-color="white" stop-opacity="0"/>
</linearGradient>
</defs>
</svg>
