<svg
    width="20"
    height="17"
    viewBox="0 0 20 17"
    fill="none"
    xmlns="http://www.w3.org/2000/svg"
>
    <path
        d="M6.66663 10.005H13.3333M6.66663 6.6599H9.99996M18.3053 7.67733C18.3238 7.89323 18.3333 8.11173 18.3333 8.33246C18.3333 12.4892 14.9754 15.859 10.8333 15.859H4.99996C3.15901 15.859 1.66663 14.3613 1.66663 12.5139V8.33246C1.66663 4.17568 5.02449 0.805939 9.16663 0.805939H10.8333C11.0532 0.805939 11.271 0.81544 11.4861 0.834056M18.3333 3.31478C18.3333 4.70037 17.214 5.82362 15.8333 5.82362C14.4526 5.82362 13.3333 4.70037 13.3333 3.31478C13.3333 1.92918 14.4526 0.805939 15.8333 0.805939C17.214 0.805939 18.3333 1.92918 18.3333 3.31478Z"
        stroke="#28303F"
        stroke-width="1.5"
        stroke-linecap="round"
    />
</svg>