<svg
    width="20"
    height="20"
    viewBox="0 0 20 20"
    fill="none"
    xmlns="http://www.w3.org/2000/svg"
>
    <path
        d="M6.66669 13.3333C9.30963 14.4546 10.7803 14.4343 13.3334 13.3333M13.4836 18.3333H6.51639C4.59244 18.3333 3.03277 16.845 3.03277 15.009V10.9442C3.03277 10.354 2.78708 9.78798 2.34976 9.37065C1.33652 8.40374 1.46824 6.8017 2.62711 5.99742L7.95105 2.30249C9.17259 1.45471 10.8275 1.45471 12.049 2.30249L17.3729 5.99742C18.5318 6.8017 18.6635 8.40374 17.6503 9.37065C17.213 9.78798 16.9673 10.354 16.9673 10.9442V15.009C16.9673 16.845 15.4076 18.3333 13.4836 18.3333Z"
        stroke="#28303F"
        stroke-width="1.5"
        stroke-linecap="round"
    />
</svg>