<svg width="35" height="37" viewBox="0 0 35 37" fill="none" xmlns="http://www.w3.org/2000/svg">
    <path
        d="M11.9632 0.268799C9.84666 0.268799 7.94493 1.48974 7.02468 3.39941H0.920249C0.398774 3.39941 0 3.83769 0 4.33859V5.46609C0 8.81584 2.66884 11.539 5.95106 11.539H6.44174V14.6696C6.44174 15.2018 6.84051 15.6088 7.36199 15.6088C7.88346 15.6088 8.28224 15.2018 8.28224 14.6696V10.5998C8.28224 10.3494 8.19009 10.099 8.00604 9.94249C7.82199 9.75466 7.60739 9.66062 7.36199 9.66062H5.95106C3.68111 9.66062 1.8405 7.78274 1.8405 5.46609V5.27777H7.48481C7.91426 5.34038 8.34335 5.08993 8.49672 4.65165C9.0182 3.14896 10.3988 2.14716 11.9632 2.14716C13.9878 2.14716 15.6442 3.83769 15.6442 5.90389V12.0086C15.6442 12.4782 15.4603 12.9166 15.1535 13.2296C14.8468 13.5427 14.4172 13.7304 13.9571 13.7304C13.0369 13.7304 12.27 12.9478 12.27 12.0086V8.75323C12.27 8.22103 11.8712 7.81405 11.3497 7.81405C10.8283 7.81405 10.4295 8.22103 10.4295 8.75323V12.0086C10.4295 13.9809 12.0246 15.6088 13.9571 15.6088C14.908 15.6088 15.7975 15.2336 16.4417 14.5449C17.0858 13.8561 17.4847 12.9478 17.4847 12.0086V5.90389C17.4847 2.80459 15.0001 0.268799 11.9632 0.268799ZM7.36199 17.6125C6.84051 17.6125 6.44174 18.0195 6.44174 18.5517C6.44174 19.0839 6.84051 19.4908 7.36199 19.4908H14.3867C14.9695 19.9917 16.4415 21.2126 17.2391 21.7135C20.9814 23.9675 23.313 28.1004 23.313 32.5458V34.5178H12.8835C12.362 34.5178 11.9632 34.1108 11.9632 33.5786C11.9632 33.0464 12.362 32.6394 12.8835 32.6394H18.0982C18.6197 32.6394 19.0185 32.2324 19.0185 31.7002C19.0185 31.168 18.6197 30.761 18.0982 30.761C16.9019 30.761 15.951 29.7905 15.951 28.5696C15.951 28.0374 15.5522 27.6304 15.0307 27.6304C14.5093 27.6304 14.1105 28.0374 14.1105 28.5696C14.1105 29.3836 14.3559 30.1349 14.724 30.761H12.8835C11.3497 30.761 10.1227 32.0133 10.1227 33.5786C10.1227 35.1439 11.3497 36.3961 12.8835 36.3961H24.2332C30.1842 36.3961 35 31.4812 35 25.4078C35 24.8756 34.6012 24.4686 34.0798 24.4686C33.5583 24.4686 33.1595 24.8756 33.1595 25.4078C33.1595 30.1037 29.632 33.9858 25.1535 34.4554V32.514C25.1535 27.4112 22.4844 22.6529 18.1899 20.0858C17.4537 19.6475 15.8896 18.3016 15.3375 17.832C15.1841 17.6755 14.9694 17.6125 14.724 17.6125H7.36199ZM4.6318 19.4597C4.38773 19.4597 4.15366 19.5586 3.98108 19.7347C3.8085 19.9109 3.71155 20.1498 3.71155 20.3988C3.71155 20.6479 3.8085 20.8868 3.98108 21.0629C4.15366 21.2391 4.38773 21.338 4.6318 21.338C4.87586 21.338 5.10993 21.2391 5.28251 21.0629C5.45509 20.8868 5.55205 20.6479 5.55205 20.3988C5.55205 20.1498 5.45509 19.9109 5.28251 19.7347C5.10993 19.5586 4.87586 19.4597 4.6318 19.4597ZM7.36199 21.338C6.84051 21.338 6.44174 21.745 6.44174 22.2772V30.8864C5.36812 31.262 4.60124 32.3265 4.60124 33.5474C4.60124 35.1127 5.82824 36.3649 7.36199 36.3649H8.28224C8.80371 36.3649 9.20249 35.958 9.20249 35.4258C9.20249 34.8935 8.80371 34.4866 8.28224 34.4866H7.36199C6.84051 34.4866 6.44174 34.0796 6.44174 33.5474C6.44174 33.0152 6.84051 32.6082 7.36199 32.6082C7.88346 32.6082 8.28224 32.2012 8.28224 31.669V22.2772C8.28224 21.745 7.88346 21.338 7.36199 21.338Z"
        fill="#FF5722" />
</svg>