<svg width="22" height="25" viewBox="0 0 22 25" fill="none" xmlns="http://www.w3.org/2000/svg">
<path fill-rule="evenodd" clip-rule="evenodd" d="M6.55556 0C7.10784 0 7.55556 0.452116 7.55556 1.00983V1.689H14.4444V1.00983C14.4444 0.452116 14.8922 0 15.4444 0C15.9967 0 16.4444 0.452116 16.4444 1.00983V1.689H16.5556C19.5658 1.689 22 4.16099 22 7.20283V10.0178C22 10.5755 21.5523 11.0277 21 11.0277C20.4477 11.0277 20 10.5755 20 10.0178V7.20283C20 5.26969 18.4545 3.70866 16.5556 3.70866H16.4444V4.38783C16.4444 4.94554 15.9967 5.39766 15.4444 5.39766C14.8922 5.39766 14.4444 4.94554 14.4444 4.38783V3.70866H7.55556V4.38783C7.55556 4.94554 7.10784 5.39766 6.55556 5.39766C6.00327 5.39766 5.55556 4.94554 5.55556 4.38783V3.70866H5.44444C3.54546 3.70866 2 5.26969 2 7.20283V19.0258C2 20.959 3.54546 22.52 5.44444 22.52H7.66667C8.21895 22.52 8.66667 22.9721 8.66667 23.5298C8.66667 24.0876 8.21895 24.5397 7.66667 24.5397H5.44444C2.43424 24.5397 0 22.0677 0 19.0258V7.20283C0 4.16099 2.43424 1.689 5.44444 1.689H5.55556V1.00983C5.55556 0.452116 6.00327 0 6.55556 0ZM5.55556 8.89183C5.55556 8.33412 6.00327 7.882 6.55556 7.882H15.4444C15.9967 7.882 16.4444 8.33412 16.4444 8.89183C16.4444 9.44955 15.9967 9.90166 15.4444 9.90166H6.55556C6.00327 9.90166 5.55556 9.44955 5.55556 8.89183ZM5.55556 13.3958C5.55556 12.8381 6.00327 12.386 6.55556 12.386H13.2222C13.7745 12.386 14.2222 12.8381 14.2222 13.3958C14.2222 13.9535 13.7745 14.4057 13.2222 14.4057H6.55556C6.00327 14.4057 5.55556 13.9535 5.55556 13.3958ZM17.1169 13.235C18.2339 12.103 20.0466 12.103 21.1636 13.235C22.2788 14.3651 22.2788 16.1959 21.1636 17.326L15.5916 22.9726C15.3375 23.2302 15.0223 23.4181 14.6759 23.5182L9.54686 25L11.0076 19.8075C11.1059 19.458 11.2907 19.1393 11.5449 18.8817L17.1169 13.235ZM19.7469 14.6606C19.4115 14.3207 18.869 14.3207 18.5336 14.6606L12.9616 20.3073C12.9476 20.3215 12.9371 20.3393 12.9315 20.3594L12.4531 22.0597L14.1258 21.5764C14.144 21.5712 14.161 21.5612 14.1749 21.547L19.7469 15.9004C20.0844 15.5584 20.0844 15.0026 19.7469 14.6606ZM5.55556 17.8998C5.55556 17.3421 6.00327 16.89 6.55556 16.89H8.77778C9.33006 16.89 9.77778 17.3421 9.77778 17.8998C9.77778 18.4575 9.33006 18.9097 8.77778 18.9097H6.55556C6.00327 18.9097 5.55556 18.4575 5.55556 17.8998Z" fill="url(#paint0_linear_167_4832)"/>
<defs>
<linearGradient id="paint0_linear_167_4832" x1="11" y1="0" x2="11" y2="25" gradientUnits="userSpaceOnUse">
<stop stop-color="#FF5722"/>
<stop offset="1" stop-color="white" stop-opacity="0"/>
</linearGradient>
</defs>
</svg>
