<svg
    width="20"
    height="20"
    viewBox="0 0 20 20"
    fill="none"
    xmlns="http://www.w3.org/2000/svg"
>
    <path
        d="M18.3334 8.33332V15C18.3334 16.8409 16.841 18.3333 15 18.3333H5.00002C3.15907 18.3333 1.66669 16.8409 1.66669 15V8.33332M18.3334 8.33332C18.3334 6.49237 16.841 4.99999 15 4.99999H5.00002C3.15907 4.99999 1.66669 6.49237 1.66669 8.33332M18.3334 8.33332C18.3334 8.33332 15.6978 10.6372 10 10.4842C4.3022 10.3313 1.66669 8.33332 1.66669 8.33332M6.66669 4.99999V4.16666C6.66669 2.78594 7.78598 1.66666 9.16669 1.66666H10.8334C12.2141 1.66666 13.3334 2.78594 13.3334 4.16666V4.99999M6.66669 8.89726V11.3973M13.3334 8.89726V11.3973"
        stroke="#28303F"
        stroke-width="1.5"
        stroke-linecap="round"
    />
</svg>